<mxfile host="app.diagrams.net" modified="2022-01-10T16:12:06.665Z" agent="5.0 (Macintosh; Intel Mac OS X 10_15_7) AppleWebKit/537.36 (KHTML, like Gecko) Chrome/96.0.4664.110 Safari/537.36" etag="T564DmSFf82nWqNBS8ag" version="16.2.4" type="github">
  <diagram id="_F_N2uEazM_NRZ6YdD6K" name="Page-1">
    <mxGraphModel dx="926" dy="601" grid="1" gridSize="10" guides="1" tooltips="1" connect="1" arrows="1" fold="1" page="1" pageScale="1" pageWidth="850" pageHeight="1100" math="0" shadow="0">
      <root>
        <mxCell id="0" />
        <mxCell id="1" parent="0" />
        <mxCell id="-nwRsRfeZmfWsjGaMFSv-1" value="&lt;font style=&quot;font-size: 16px&quot; color=&quot;#999999&quot;&gt;&lt;i&gt;Your organisation logo&lt;/i&gt;&lt;/font&gt;" style="rounded=0;whiteSpace=wrap;html=1;fillColor=#eeeeee;strokeColor=#B3B3B3;" vertex="1" parent="1">
          <mxGeometry x="80" y="40" width="230" height="120" as="geometry" />
        </mxCell>
      </root>
    </mxGraphModel>
  </diagram>
</mxfile>
